<?xml version="1.0" encoding="utf-8"?>
<!-- Generator: Adobe Illustrator 24.3.0, SVG Export Plug-In . SVG Version: 6.00 Build 0)  -->
<svg version="1.1" id="Layer_1" xmlns="http://www.w3.org/2000/svg" xmlns:xlink="http://www.w3.org/1999/xlink" x="0px" y="0px"
	 viewBox="0 0 1529 572.4" style="enable-background:new 0 0 1529 572.4;" xml:space="preserve">
<style type="text/css">
	.st0{fill:#E3AC26;}
	.st1{fill:#806227;}
	.st2{fill:#1D2D2D;}
	.st3{fill:#0E1314;}
	.st4{fill:#10191A;}
	.st5{fill:#152021;}
	.st6{fill:#F26E21;}
	.st7{fill:#F37923;}
	.st8{opacity:0.4;fill:#F47E2C;}
	.st9{fill:#8B9D9C;}
	.st10{fill:#45696B;}
	.st11{fill:#B11F24;}
	.st12{fill:#CA2027;}
	.st13{fill:#0B0F0F;}
	.st14{fill:#172223;}
	.st15{fill:#12191B;}
	.st16{fill:#AAC1C1;}
	.st17{fill:#233538;}
	.st18{fill:#0B4349;}
	.st19{fill:#0F3639;}
	.st20{fill:url(#SVGID_1_);}
	.st21{fill:#203233;}
	.st22{fill:#0D1011;}
	.st23{fill:#E5E5E4;}
	.st24{opacity:0.45;fill:#E5E5E4;}
	.st25{fill:#92722B;}
	.st26{fill:#182526;}
	.st27{fill:#1E2C2E;}
	.st28{fill:#FFE9B3;}
	.st29{fill:url(#SVGID_2_);}
	.st30{fill:#FAB914;}
	.st31{fill:url(#SVGID_3_);}
	.st32{fill:#2E436A;}
	.st33{fill:url(#SVGID_4_);}
	.st34{fill:#737374;}
	.st35{fill:#437592;}
	.st36{fill:#305E7A;}
	.st37{fill:#A01D21;}
	.st38{fill:#22292A;}
	.st39{fill:#E1DADB;}
	.st40{fill:#FFFFFF;}
	.st41{fill:#676767;}
	.st42{fill:#4B565D;}
	.st43{fill:#376C8C;}
	.st44{fill:#EAEAEA;}
	.st45{fill:#172122;}
	.st46{fill:url(#SVGID_5_);}
	.st47{fill:#3B4447;}
	.st48{fill:#162122;}
	.st49{fill:#D2D5D8;}
	.st50{fill:#3C4447;}
	.st51{fill:#6A6E6F;}
	.st52{fill:url(#SVGID_6_);}
	.st53{fill:#284C62;}
	.st54{fill:#295168;}
</style>
<path class="st0" d="M1417,247.3c-0.8,131.4-212.9,236.6-473.7,235c-260.8-1.6-570.7-108.2-569.9-242.4
	C374.3,105.6,685.6,4.8,946.3,6.4S1417.8,115.9,1417,247.3z"/>
<g>
	<g>
		<g>
			<path class="st1" d="M48.7,536.9c0,4.7,17.6,8.6,39.2,8.6h1368.4c21.7,0,39.2-3.8,39.2-8.6l0,0c0-4.7-17.6-8.6-39.2-8.6H87.9
				C66.3,528.4,48.7,532.2,48.7,536.9L48.7,536.9z"/>
			<g>
				<g>
					
						<rect x="132.3" y="414.5" transform="matrix(0.9975 -7.088291e-02 7.088291e-02 0.9975 -29.0442 16.1883)" class="st2" width="162.6" height="5.6"/>
				</g>
				<path class="st2" d="M1081.5,395.8c0,2.7,2.2,4.9,4.9,4.9h30.8c2.7,0,4.9-2.2,4.9-4.9v-99c0-2.7-2.2-4.9-4.9-4.9h-30.8
					c-2.7,0-4.9,2.2-4.9,4.9V395.8z"/>
				<polygon class="st3" points="827.9,442.4 827.9,461.4 763.6,463.6 662.2,481.5 662.2,442.9 				"/>
				<polygon class="st4" points="259.7,450.4 1204.6,450.4 1204.6,419.8 282.1,419.8 				"/>
				<rect x="282.3" y="398.6" class="st5" width="840.6" height="22.3"/>
				<g>
					<g>
						<rect x="1062.1" y="407.1" class="st6" width="8.1" height="4.4"/>
						<polygon class="st7" points="1062.9,407.1 1070.2,410.6 1070.2,407.1 						"/>
					</g>
					<g>
						<rect x="908.4" y="407.1" class="st6" width="8.1" height="4.4"/>
						<polygon class="st7" points="909.2,407.1 916.5,410.6 916.5,407.1 						"/>
					</g>
				</g>
				<g>
					<rect x="765.7" y="407.1" class="st6" width="8.1" height="4.4"/>
					<polygon class="st7" points="766.5,407.1 773.8,410.6 773.8,407.1 					"/>
				</g>
				<g>
					<rect x="470.2" y="407.1" class="st6" width="8.1" height="4.4"/>
					<polygon class="st7" points="471,407.1 478.3,410.6 478.3,407.1 					"/>
				</g>
				<g>
					<polygon class="st6" points="1144.5,170 1170.4,170 1169.9,164.2 1167.2,136 1147.7,136 1145.1,164.2 					"/>
					<polygon class="st8" points="1161.6,136 1163.6,170 1170.4,170 1169.9,164.2 1167.2,136 					"/>
					<polygon class="st9" points="1144.5,170 1170.4,170 1169.9,164.2 1145.1,164.2 					"/>
				</g>
				<g>
					<rect x="347.1" y="407.1" class="st6" width="8.1" height="4.4"/>
					<polygon class="st7" points="347.9,407.1 355.1,410.6 355.1,407.1 					"/>
				</g>
				<path class="st10" d="M986,449.7c0,21.7,17.6,39.3,39.3,39.3c21.7,0,39.3-17.6,39.3-39.3c0-21.7-17.6-39.3-39.3-39.3
					C1003.6,410.4,986,428,986,449.7z"/>
				<polygon class="st2" points="1210.1,414.5 1029.9,414.5 1029.9,459.2 1047,463.7 1048,481.3 1098.2,481.8 1101.2,463.7 
					1110.7,463.7 1111.7,450.9 1120.1,418.5 1172.9,418.5 1180.5,464.7 1196.6,467.7 				"/>
				<path class="st5" d="M1051.8,490.3c0,3.3,2.7,6,6,6h31.8c3.3,0,6-2.7,6-6v-18.4c0-3.3-2.7-6-6-6h-31.8c-3.3,0-6,2.7-6,6V490.3z"
					/>
				<g>
					<g>
						<path class="st11" d="M253.2,443.6l8.4,1.3c0-0.7,0.1-1.7,0.1-2.7c0.1-1.2,0.1-2.7,0.1-4.3c0-0.6,0-1.1,0-1.7
							c0-2,0-4.2-0.1-6.6l-7.3-0.1l-0.1,1L253.2,443.6z"/>
						<path class="st12" d="M254.3,430.4c2.1,1.2,4.7,3.1,7.5,5.7c0-2,0-4.2-0.1-6.6l-7.3-0.1L254.3,430.4z"/>
					</g>
					<polygon class="st5" points="275.2,419.1 260.1,422.3 258.8,453.5 270.9,457 275.2,437.2 282.5,423.6 					"/>
				</g>
				<polygon class="st13" points="1468.3,470.9 1255.2,472.4 1268.6,402.5 1288,367.1 1335.4,347.5 1367.5,347.5 1400.5,347.5 
					1442.6,367.1 1457.8,392.8 1473.3,422.4 1477.4,460.1 				"/>
				<g>
					<path class="st14" d="M1306.3,469.8c0,38,30.8,68.8,68.8,68.8c38,0,68.8-30.8,68.8-68.8c0-38-30.8-68.9-68.8-68.9
						C1337.1,400.9,1306.3,431.7,1306.3,469.8z"/>
					<path class="st15" d="M1324.6,469.8c0,27.9,22.6,50.6,50.6,50.6c27.9,0,50.6-22.6,50.6-50.6c0-27.9-22.6-50.6-50.6-50.6
						C1347.2,419.2,1324.6,441.8,1324.6,469.8z"/>
					<path class="st9" d="M1331,469.8c0,24.4,19.8,44.1,44.1,44.1c24.4,0,44.1-19.8,44.1-44.1c0-24.4-19.8-44.1-44.1-44.1
						C1350.8,425.6,1331,445.4,1331,469.8z"/>
					<path class="st16" d="M1347.6,469.8c0,15.2,12.3,27.5,27.5,27.5c15.2,0,27.5-12.3,27.5-27.5c0-15.2-12.3-27.5-27.5-27.5
						C1359.9,442.2,1347.6,454.6,1347.6,469.8z"/>
					<path class="st14" d="M1362.5,469.8c0,7,5.6,12.6,12.6,12.6c7,0,12.6-5.6,12.6-12.6c0-7-5.6-12.6-12.6-12.6
						C1368.2,457.2,1362.5,462.8,1362.5,469.8z"/>
					<path class="st17" d="M1370.5,434.7c0,2.6,2.1,4.7,4.7,4.7c2.6,0,4.7-2.1,4.7-4.7c0-2.6-2.1-4.7-4.7-4.7
						C1372.6,430,1370.5,432.1,1370.5,434.7z"/>
					<path class="st17" d="M1392,438.6c-1.5,2.1-1.1,5,1,6.5c2.1,1.5,5,1.1,6.5-1c1.5-2.1,1-5-1-6.5
						C1396.4,436.1,1393.5,436.5,1392,438.6z"/>
					<path class="st17" d="M1407.1,454.5c-2.5,0.8-3.8,3.4-3,5.9c0.8,2.4,3.4,3.8,5.9,3c2.4-0.8,3.8-3.4,3-5.9
						C1412.2,455,1409.5,453.7,1407.1,454.5z"/>
					<path class="st17" d="M1410,476.2c-2.5-0.8-5.1,0.5-5.9,3c-0.8,2.4,0.5,5.1,3,5.9c2.5,0.8,5.1-0.5,5.9-3
						C1413.8,479.6,1412.4,477,1410,476.2z"/>
					<path class="st17" d="M1399.5,495.4c-1.5-2.1-4.4-2.5-6.5-1c-2.1,1.5-2.6,4.5-1,6.5c1.5,2.1,4.4,2.6,6.5,1
						C1400.6,500.4,1401.1,497.5,1399.5,495.4z"/>
					<path class="st17" d="M1379.8,504.9c0-2.6-2.1-4.7-4.7-4.7c-2.6,0-4.7,2.1-4.7,4.7c0,2.6,2.1,4.7,4.7,4.7
						C1377.7,509.5,1379.8,507.4,1379.8,504.9z"/>
					<path class="st17" d="M1358.3,500.9c1.5-2.1,1-5-1-6.5c-2.1-1.5-5-1.1-6.5,1c-1.5,2.1-1.1,5,1,6.5
						C1353.8,503.5,1356.8,503,1358.3,500.9z"/>
					<path class="st17" d="M1343.2,485c2.5-0.8,3.8-3.4,3-5.9c-0.8-2.5-3.4-3.8-5.9-3c-2.4,0.8-3.8,3.4-3,5.9
						C1338.1,484.5,1340.7,485.8,1343.2,485z"/>
					<path class="st17" d="M1340.3,463.4c2.5,0.8,5.1-0.5,5.9-3c0.8-2.5-0.5-5.1-3-5.9c-2.5-0.8-5.1,0.5-5.9,3
						C1336.5,459.9,1337.9,462.6,1340.3,463.4z"/>
					<path class="st17" d="M1350.7,444.1c1.5,2.1,4.4,2.6,6.5,1c2.1-1.5,2.6-4.4,1-6.5c-1.5-2.1-4.4-2.5-6.5-1
						C1349.7,439.1,1349.2,442,1350.7,444.1z"/>
				</g>
				<polygon class="st18" points="1335.4,285.8 1335.4,313.2 1153.5,284.4 1144,273.1 1144,183.7 1233.6,189.9 1294.1,238.8 
					1324.4,265.9 1327.5,271.6 				"/>
				<g>
					<path class="st19" d="M1147.3,253.5c5,5.8,8.2-2.7,8.2-2.7c4.9-7.4-0.2-29-0.2-29s-8.1-6.1-13.7,1.9
						C1141.6,223.7,1139.8,244.8,1147.3,253.5z"/>
					<path class="st19" d="M1149.9,307.9c0.5,4,3.9,6.8,7.6,6.3l0,0c3.7-0.5,6.4-4.2,5.9-8.2l-5.3-45c-0.5-4-3.9-6.8-7.6-6.3l0,0
						c-3.7,0.5-6.4,4.2-5.9,8.1L1149.9,307.9z"/>
				</g>
				<linearGradient id="SVGID_1_" gradientUnits="userSpaceOnUse" x1="1203.5795" y1="575.8192" x2="1347.6486" y2="194.4598">
					<stop  offset="0" style="stop-color:#F08321"/>
					<stop  offset="1" style="stop-color:#FFC119"/>
				</linearGradient>
				<path class="st20" d="M1107.7,181.1v291l143.2,2.3l16.9,0.3h0l7.6,0.1c19.3-114,129.2-88,129.2-88c14.2,3.3,25,10.3,33.2,18.9
					c25,26.4,25.7,68.4,25.7,68.4c5.6,5,12.8,4,17.5,2.5c1.7-0.5,3.1-1.1,3.9-1.5c0.5-0.2,0.8-0.4,0.8-0.4
					c11.1-6.3,10.8-41.5,11.1-55.7c0.1-5.7,0.2-13.2,0.2-21.5V391c0-0.7,0-1.3,0-2c0-1.6,0-3.2,0-4.8c0-0.8,0-1.7,0-2.5
					c0-0.2,0-0.5,0-0.8c0-0.7,0-1.4,0-2.1v-0.2c0-0.8,0-1.7,0-2.5c0-1.4,0-2.8,0-4.2c-0.1-6.5-0.1-12.8-0.2-18.4
					c0-2.3-0.1-4.4-0.1-6.4c0-1.4,0-2.7-0.1-4c-0.2-7.9-1.2-13.5-2.9-17.5c-0.2-0.4-0.4-0.8-0.5-1.2c-3.1-6.3-7.8-8.4-12.4-10.5
					c-28.4-12.4-82-27-113.3-34.8c-11.5-2.8-20.2-6.1-26.5-9c-9.2-4.2-13.4-7.5-13.4-7.5c-5.3-4.5-11.4-9.8-17.9-15.5l-0.7-0.6
					c-27.7-24.6-61.8-56.7-71.3-65.7c-0.6-0.5-1.4-1.1-2.3-1.7c-4.9-3.2-14.7-7.7-34.6-9.9c-20.2-2.2-68.1-5.2-81.3-3.9
					c0,0-6.4-0.2-9.6,6.2C1108.4,174,1107.7,177,1107.7,181.1z M1329.3,299.5c-6.3,7-13.3,5.7-13.3,5.7c-0.4-0.1-0.9-0.1-1.4-0.2
					c-0.2,0-0.4-0.1-0.6-0.1c-6.5-1-15.7-2.4-26.5-4.2c-14.6-2.4-31.9-5.3-48.6-8.2c-1.7-0.3-3.5-0.6-5.2-0.9
					c-33.2-5.7-62.8-10.9-62.8-10.9c-21.6-2.9-21.8-11.4-22.1-18.6c-0.6-17.7-2.5-56.3-2.5-56.3c-0.6-17.1,9.1-16.7,14.6-16.5
					c27.2,1.2,45.6,3.2,45.6,3.2c12.4,1.4,20.8,3.8,27.2,6.7c1.9,0.9,3.6,1.8,5.2,2.7c2.8,1.6,5.2,3.3,7.6,5.1
					c16.9,12.7,30.1,23.8,41,34c8.9,8.3,16.4,15.9,23.1,23c0.3,0.2,0.5,0.5,0.7,0.8c3.9,4.1,7.5,8.1,11,11.9
					C1333.1,288.4,1332.9,295.4,1329.3,299.5z"/>
				<path class="st5" d="M1250.9,474.4l24.6,0.4c19.3-114,129.2-88,129.2-88c57.6,13.3,58.9,87.4,58.9,87.4
					c8.9,7.9,22.2,0.6,22.2,0.6c11-6.3,10.8-41.5,11.1-55.7c0.1-6.1,0.2-14.5,0.2-23.7c0-2.1,0-4.3,0-6.5c0-2.3,0-4.6,0-6.9
					c0-0.4,0-0.7,0-1.1c0-3,0-6-0.1-9c-22.3-5-62.5-11.2-122.8-10c0,0-79.8,0-102.6,54.1C1271.4,416,1261.9,437.8,1250.9,474.4z"/>
				<polygon class="st21" points="28.8,438.1 28.8,444.6 55.6,440.1 86.6,434.9 114,430.3 291.7,400.5 291.7,371.2 102.9,419.3 
					77.4,425.7 48.6,433.1 				"/>
				<polygon class="st5" points="1107.7,442.7 1107.7,472.2 1250.9,474.4 1267.8,474.7 1267.8,474.7 1267.8,446.2 				"/>
				<polygon class="st4" points="28.8,443.9 28.8,444.6 291.7,400.5 291.7,376.9 				"/>
				<path class="st2" d="M1507,419.8l-47.5-1.3l10.4,40.2h22.8C1492.7,458.7,1508.7,460.2,1507,419.8z"/>
				<path class="st22" d="M1119.3,451.5l-0.1,9.1c0,2.5,1.4,4.5,3.2,4.5l125.1,2.3c1.8,0,3.3-1.9,3.3-4.4l0.1-9.3L1119.3,451.5z"/>
				<path class="st5" d="M1287.5,241v59.7c11.9,2,22,3.6,28.5,4.5c0,0,7,1.3,13.3-5.7c3.6-4,3.8-11.1-7-22.8
					C1312.4,265.9,1301.9,254.3,1287.5,241z"/>
				<path class="st2" d="M992,332.6c0,17.1,13.9,31,31,31c17.1,0,31-13.9,31-31c0-17.1-13.9-31-31-31
					C1005.9,301.6,992,315.5,992,332.6z"/>
				<path class="st5" d="M1238.9,201.9v90.6c-1.7-0.3-3.5-0.6-5.2-0.9v-92.4L1238.9,201.9z"/>
				<g>
					<path class="st23" d="M1461.5,379.8c-0.4-0.1-0.7-0.2-1.1-0.3c0.3,0.1,0.5,0.1,0.8,0.2C1461.3,379.7,1461.4,379.7,1461.5,379.8
						z"/>
					<path class="st23" d="M1487,378.8v0.1h0c-0.1,0-0.2-0.1-0.4-0.1H1487z"/>
					<path class="st23" d="M1496.9,389c0-1.6,0-3.2,0-4.8c0-0.8,0-1.6,0-2.5v-0.7c0-0.7,0-1.4,0-2.1v-0.2c0-0.8,0-1.7,0-2.5
						c-0.1-0.1-0.3-0.1-0.4-0.2c-18.9-4.3-41.2-6.7-54.5-7.3c-6-0.3-6.3,0.9-5.4,2c0.5,0.6,1.4,1.1,1.8,1.4
						c3.1,1.6,7.2,3.1,11.8,4.5h0c0,0,0,0,0.1,0c0,0,0,0,0.1,0c2.8,0.9,5.6,1.7,8.5,2.5c0.5,0.2,1,0.3,1.5,0.4c0,0,0.1,0,0.1,0
						c0.3,0.1,0.5,0.1,0.8,0.2c0.1,0,0.2,0.1,0.3,0.1c0.1,0,0.2,0.1,0.3,0.1c0,0,0,0,0,0c1.2,0.3,2.4,0.7,3.5,1
						c0.7,0.2,1.3,0.4,2,0.6c0.9,0.3,1.8,0.6,2.6,0.9c0.4,0.1,0.7,0.3,1.1,0.4c1,0.4,1.9,0.7,2.8,1.1c0.4,0.2,0.7,0.3,1,0.5
						c0.1,0.1,0.3,0.1,0.4,0.2c0,0,0.1,0,0.1,0c0.1,0.1,0.2,0.1,0.3,0.2h0l0,0l0.1,0c0,0,0.1,0,0.1,0.1c0.2,0.1,0.4,0.2,0.5,0.3
						c0,0,0.1,0,0.1,0.1c0.1,0,0.1,0.1,0.2,0.1c0.1,0.1,0.2,0.2,0.3,0.3c0.1,0.1,0.1,0.1,0.1,0.1c0.1,0,0.1,0.1,0.1,0.1
						c0.1,0,0.1,0.1,0.1,0.1l0.1,0.1c0.1,0.1,0.1,0.1,0.1,0.2c0.1,0.1,0.1,0.1,0.2,0.2c0,0,0.1,0.1,0.1,0.1c0,0,0.1,0.1,0.1,0.1
						c0,0,0,0,0,0.1c0.1,0.1,0.1,0.1,0.1,0.2c0.1,0.1,0.1,0.2,0.1,0.2c0,0.1,0.1,0.1,0.1,0.2c0.1,0.1,0.1,0.3,0.2,0.4
						c0,0.1,0,0.2,0.1,0.3c0,0,0,0.1,0,0.1c0,0.1,0,0.2,0,0.3c0,0.2,0,0.4,0,0.6v0.1c0,0.2,0,0.4-0.1,0.6c0,0.1,0,0.1,0,0.2
						c0,0.1,0,0.1,0,0.2c-0.1,0.2-0.1,0.3-0.2,0.5c-1.8,3.6,1.9,3.9,1.9,3.9c10,0.9,14.7,1.1,16.7,1.1V391
						C1496.9,390.4,1496.9,389.7,1496.9,389z M1487,378.9c-0.1,0-0.2-0.1-0.4-0.1h0.4L1487,378.9L1487,378.9z"/>
					<path class="st23" d="M1476.9,385.5c-0.2-0.1-0.3-0.2-0.5-0.4c0.1,0,0.1,0.1,0.2,0.1C1476.7,385.4,1476.8,385.4,1476.9,385.5z"
						/>
					<path class="st23" d="M1478.5,388.3c0-0.1,0-0.3-0.1-0.4c0,0,0,0.1,0,0.1C1478.5,388.1,1478.5,388.2,1478.5,388.3z"/>
					<path class="st23" d="M1487,378.8v0.1h0c-0.1,0-0.2-0.1-0.4-0.1H1487z"/>
					<path class="st23" d="M1475.7,384.7c-0.1-0.1-0.3-0.1-0.4-0.2c0,0,0.1,0,0.1,0C1475.5,384.6,1475.6,384.7,1475.7,384.7z"/>
					<path class="st23" d="M1487,378.8v0.1h0c-0.1,0-0.2-0.1-0.4-0.1H1487z"/>
					<path class="st24" d="M1487,378.8v0.1h0c-0.1,0-0.2-0.1-0.4-0.1H1487z"/>
				</g>
				<g>
					<path class="st25" d="M1153.7,305.1l2.8,0c3.2-1.8,8.2-2.9,12.7-2.8c4.6,0.1,9.5,1.3,12.6,3.1l2.8,0c2.6,0,4.6,2.3,4.6,4.3
						c0,2-2.1,4-4.7,4l-3.1,0c-3.2,1.7-8,2.7-12.4,2.7c-4.4-0.1-9.2-1.2-12.3-3l-3.1,0c-2.6,0-4.7-2.1-4.6-4.1
						C1149,307.3,1151.1,305.1,1153.7,305.1z"/>
					<path class="st5" d="M1188,309.8c0,1.9-2,3.5-4.4,3.4l-29.1-0.3c-2.4,0-4.4-1.6-4.4-3.5l0,0c0-1.9,2-3.4,4.4-3.4l29.1,0.3
						C1186.1,306.3,1188,307.8,1188,309.8L1188,309.8z"/>
				</g>
				<g>
					<path d="M1301.9,347.6h16.4c1.7,0,3-1.4,3-3v-78.7c0-1.7-1.4-3-3-3h-16.4v-3h16.4c3.3,0,6,2.7,6,6v78.7c0,3.3-2.7,6-6,6h-16.4
						V347.6z"/>
					<path class="st26" d="M1309.9,272.8l2.6,48.4c0,2.5,1,4.5,2.9,4.5h12.4c1.9,0,3.5-2,3.5-4.5v-48.4c0-2.5-1.5-4.5-3.5-4.5h-14.4
						C1311.5,268.2,1309.9,270.3,1309.9,272.8z"/>
					<path class="st27" d="M1321.6,325.7h6.2c1.9,0,3.5-2,3.5-4.5v-48.4c0-2.5-1.5-4.5-3.5-4.5h-1.1
						C1325.8,282.9,1324.2,306.7,1321.6,325.7z"/>
				</g>
				<path class="st28" d="M1109.6,171.8c54.7-1.1,97.3,3.2,125.6,7.5c-4.9-3.2-14.7-7.7-34.6-9.9c-20.2-2.2-68.1-5.1-81.3-3.9
					C1119.2,165.5,1112.9,165.3,1109.6,171.8z"/>
				<polygon class="st4" points="281.9,371.2 281.9,400.5 1084.7,400.5 1084.7,198.3 1048.6,198.3 1039.6,276.4 985.8,370.6 
					985.5,371.2 				"/>
				<linearGradient id="SVGID_2_" gradientUnits="userSpaceOnUse" x1="683.3253" y1="447.859" x2="683.3253" y2="256.7769">
					<stop  offset="0" style="stop-color:#F08321"/>
					<stop  offset="1" style="stop-color:#FFC119"/>
				</linearGradient>
				<polygon class="st29" points="281.9,371.2 281.9,400.5 1084.7,400.5 1084.7,276.4 1064.9,276.4 1053.4,294.5 1041,314 
					1010.8,361.7 1005.1,370.6 987.8,370.6 985.8,370.6 909.9,370.7 878,370.7 878,370.7 798.4,370.8 798.3,370.8 766.4,370.8 
					766.4,370.8 688.6,370.9 656.7,370.9 571.2,371 571.1,371 539.2,371 455.8,371.1 423.9,371.1 340.1,371.2 308.2,371.2 				"/>
				<g>
					<path class="st13" d="M552.2,461.9c0,0.9,0,1.8,0.1,2.7l3.3,0.7l80.4,17.2l75.4-8.9l1.7-0.2l-2-22.8l-5.8-14.8l-6.3-12.8
						l-11.5-9.2l-18.3-14.6l-18.3-4.6h-26.8l-17.2,1.3L590,404l-16.3,13.8l-9.5,5.2C556.6,434.3,552.2,447.7,552.2,461.9z"/>
					<g>
						<path class="st14" d="M567.1,472c0,36.8,29.8,66.6,66.6,66.6c36.8,0,66.6-29.8,66.6-66.6c0-36.8-29.8-66.6-66.6-66.6
							C596.9,405.4,567.1,435.2,567.1,472z"/>
						<path class="st15" d="M584.8,472c0,27,21.9,48.9,48.9,48.9c27,0,48.9-21.9,48.9-48.9c0-27-21.9-48.9-48.9-48.9
							C606.7,423.1,584.8,445,584.8,472z"/>
						<path class="st9" d="M591,472c0,23.6,19.1,42.7,42.7,42.7c23.6,0,42.7-19.1,42.7-42.7c0-23.6-19.1-42.7-42.7-42.7
							C610.1,429.3,591,448.5,591,472z"/>
						<path class="st16" d="M607.1,472c0,14.7,11.9,26.6,26.6,26.6c14.7,0,26.6-11.9,26.6-26.6c0-14.7-11.9-26.6-26.6-26.6
							C619,445.4,607.1,457.3,607.1,472z"/>
						<path class="st14" d="M621.5,472c0,6.7,5.5,12.2,12.2,12.2c6.7,0,12.2-5.5,12.2-12.2c0-6.7-5.5-12.2-12.2-12.2
							C627,459.8,621.5,465.3,621.5,472z"/>
						<path class="st17" d="M629.2,438.1c0,2.5,2,4.5,4.5,4.5c2.5,0,4.5-2,4.5-4.5c0-2.5-2-4.5-4.5-4.5
							C631.2,433.5,629.2,435.6,629.2,438.1z"/>
						<path class="st17" d="M650,441.9c-1.5,2-1,4.9,1,6.3c2,1.5,4.9,1,6.3-1c1.5-2,1-4.8-1-6.3C654.3,439.4,651.5,439.9,650,441.9z
							"/>
						<path class="st17" d="M664.6,457.2c-2.4,0.8-3.7,3.3-2.9,5.7c0.8,2.4,3.3,3.7,5.7,2.9c2.4-0.8,3.7-3.3,2.9-5.7
							C669.5,457.8,667,456.5,664.6,457.2z"/>
						<path class="st17" d="M667.4,478.2c-2.4-0.8-4.9,0.5-5.7,2.9c-0.8,2.4,0.5,4.9,2.9,5.7c2.4,0.8,4.9-0.5,5.7-2.9
							C671.1,481.5,669.8,479,667.4,478.2z"/>
						<path class="st17" d="M657.3,496.8c-1.5-2-4.3-2.5-6.3-1c-2,1.5-2.5,4.3-1,6.3c1.5,2,4.3,2.5,6.3,1
							C658.3,501.7,658.8,498.9,657.3,496.8z"/>
						<path class="st17" d="M638.2,506c0-2.5-2-4.5-4.5-4.5c-2.5,0-4.5,2-4.5,4.5c0,2.5,2,4.5,4.5,4.5
							C636.2,510.5,638.2,508.5,638.2,506z"/>
						<path class="st17" d="M617.4,502.1c1.5-2,1-4.8-1-6.3c-2-1.5-4.8-1-6.3,1c-1.5,2-1,4.9,1,6.3
							C613.1,504.6,615.9,504.2,617.4,502.1z"/>
						<path class="st17" d="M602.8,486.8c2.4-0.8,3.7-3.3,2.9-5.7c-0.8-2.4-3.3-3.7-5.7-2.9c-2.4,0.8-3.7,3.3-2.9,5.7
							C597.9,486.3,600.4,487.6,602.8,486.8z"/>
						<path class="st17" d="M600,465.8c2.4,0.8,4.9-0.5,5.7-2.9c0.8-2.4-0.5-4.9-2.9-5.7c-2.4-0.8-4.9,0.5-5.7,2.9
							C596.4,462.5,597.7,465.1,600,465.8z"/>
						<path class="st17" d="M610.1,447.2c1.5,2,4.3,2.5,6.3,1c2-1.5,2.5-4.3,1-6.3c-1.5-2-4.3-2.5-6.3-1
							C609.1,442.4,608.6,445.2,610.1,447.2z"/>
					</g>
					<path class="st2" d="M552.2,461.9c0,0.9,0,1.8,0.1,2.7c0.1,2.4,0.3,4.7,0.6,7h2.2c0.1-2.1,0.2-4.2,0.5-6.3
						c4.4-36.2,37.7-67.1,78.1-67.1c41.9,0,75.2,33.5,77.5,71.3c0,0.2,0.1,1.9,0.3,4.2c0.4,5.7,1,15.3,1,15.8h2.8
						c0.4-3.2,0-24.2,0-27.5c0-33.4-24.1-61.7-57.3-71.1h-48.4c-19,5.4-35,17-45.3,32.2C556.6,434.3,552.2,447.7,552.2,461.9z"/>
				</g>
				<polygon class="st30" points="77.4,425.7 86.6,434.9 114,430.3 102.9,419.3 				"/>
				<polygon class="st30" points="28.8,438.1 28.8,444.6 55.6,440.1 48.6,433.1 				"/>
			</g>
		</g>
	</g>
	<g>
		<g>
			<g>
				<linearGradient id="SVGID_3_" gradientUnits="userSpaceOnUse" x1="256.6534" y1="220.0208" x2="981.4924" y2="220.0208">
					<stop  offset="0" style="stop-color:#504D9F"/>
					<stop  offset="0.2438" style="stop-color:#4D5BA3"/>
					<stop  offset="0.6978" style="stop-color:#4970A9"/>
					<stop  offset="1" style="stop-color:#4877AB"/>
				</linearGradient>
				<path class="st31" d="M258.4,296.5l4.8,14.9l1.8,5.8c1,3.2,4,5.4,7.4,5.4h607.8l35.3-7.2l2.9-0.6l61.3-12.5
					c1.1-0.2,1.8-1.2,1.8-2.2v-7c0-0.9-0.3-1.8-0.9-2.5c-1.8-2.2-2.8-5-2.8-7.8v-24.8c0-2.6-0.5-5.1-1.4-7.4
					c-0.4-0.9-0.8-1.8-1.3-2.7l-3.4-6.1c-1.4-2.5-2-5.3-1.8-8.1c1.2-16.8-0.8-24.7-6.2-44.6c0-0.2,0.2-0.6,0.2-0.7
					c-0.4-1.4-0.8-2.6-0.5-4l1.2-7.4c0.6-3.7-2.3-7-6.1-6.8l-80.9-3.7c-7.1,0.3-9.5-3.8-17.4-5.9l-79.3-29.9
					c-19.4-7.7-52.8-11.5-62.9-12.5c-11.4-1.2-67.5-0.3-102,1.9c-20.3,1.3-40.2,5.8-59.2,12.9l-117.7,49.7
					c-2.4,0.9-14.9,5.3-17.4,5.9l-93.3,23.2h0l-34.1,8.5c-17.9,4.8-33.1,22.4-35.4,34.1l-1.5,24.1
					C256.2,284.3,256.5,290.6,258.4,296.5z"/>
				<path class="st32" d="M263.1,311.4l1.8,5.8c1,3.2,4,5.4,7.4,5.4h607.8l35.3-7.2l2.9-0.6l61.3-12.5c1.1-0.2,1.8-1.2,1.8-2.2v-7
					c0-0.9-0.3-1.8-0.9-2.5c0,0,0,0,0,0c-1.4-1.8-2.4-4-2.6-6.3c-0.1-0.5-0.1-1-0.1-1.5v-24.8c0-2.6-0.5-5.1-1.4-7.4L902,259
					c0,0-11.5-12.3-27.5-19.5c-24.7-11.1-63-5.4-84.4,28.5c-4.1,8.2-10.3,14.9-17.8,19.6s-16.3,7.3-25.4,7.3L449,302.6
					c0,0-5.1-70.8-78.2-68.5c-55.5,1.8-68.8,52.9-70.2,77.3H263.1z"/>
				<linearGradient id="SVGID_4_" gradientUnits="userSpaceOnUse" x1="328.415" y1="167.7352" x2="964.6" y2="167.7352">
					<stop  offset="0" style="stop-color:#504D9F"/>
					<stop  offset="0.2438" style="stop-color:#4D5BA3"/>
					<stop  offset="0.6978" style="stop-color:#4970A9"/>
					<stop  offset="1" style="stop-color:#4877AB"/>
				</linearGradient>
				<path class="st33" d="M328.4,211.5l126.3,6.6l365.8-21.4l143.2-7.7c0-0.2,0.2-0.7,0.1-0.9c-0.4-1.4-0.7-2.4-0.5-3.8l1.2-7.4
					c0.6-3.7-2.3-7-6.1-6.8l-80.9-3.7c-6-2.6-9.5-3.2-16.1-5.6l-79.5-30.1c-5.4-2-11.5-4-18-5.5c-18.2-4.2-38.5-6.3-45.9-7.1
					c-11.4-1.2-67.5-0.3-102,1.9c-20.3,1.3-40.2,5.8-59.2,12.9l-117.7,49.7c-2.4,0.9-14.9,5.3-17.4,5.9L328.4,211.5z"/>
			</g>
			<path class="st34" d="M764,125.1l85.2,36.6c4.9,2.1,15.9,6.5,21.1,5.3l7.3-0.7C836.3,150.7,775.3,126.4,764,125.1z"/>
			<path class="st34" d="M556.8,132.7l-107.6,49.7c-6.7,3.4-16.7,7.8-22.6,6.6l-4.9-0.7C447.3,177.9,542.8,137,556.8,132.7z"/>
			<g>
				<g>
					<g>
						<path class="st35" d="M613.7,222.5c0.2,3.1,5.9,5.4,12.8,4.9c6.9-0.4,12.3-3.3,12.1-6.4L613.7,222.5z"/>
						<path class="st36" d="M613.7,222.5l24.9-1.5c-0.2-3.1-5.9-5.4-12.8-4.9C619,216.5,613.6,219.3,613.7,222.5z"/>
					</g>
					<g>
						<path class="st36" d="M611.2,222.8c0.1,0.6,0.3,1.1,0.5,1.5c0.3,0.5,0.7,0.8,1.1,0.8l26.8-1.6c0.7,0,1.3-1.1,1.3-2.4
							L611.2,222.8z"/>
						<path class="st35" d="M611.1,222.3c0,0.2,0,0.3,0.1,0.5l29.7-1.8c0-0.2,0-0.3,0-0.5c0-0.8-0.3-1.5-0.6-2
							c-0.3-0.5-0.7-0.8-1.1-0.8l-26.8,1.6C611.6,219.5,611,220.8,611.1,222.3z"/>
					</g>
				</g>
			</g>
			<g>
				<path class="st37" d="M963.9,188.5l-4.4,0.7c-2.2,0.3-4.3,1.3-6.1,2.7c-7.5,6-27.5,23.8-31.2,45.3c-0.3,1.5,1,2.9,2.5,2.9
					l46.1-0.8C971.4,228,969.7,205.8,963.9,188.5z"/>
				<path class="st38" d="M924.7,240.5C924.7,240.5,924.7,240.5,924.7,240.5l46.1-0.8l0-0.9l-46.1,0.8c-0.6,0-1.2-0.3-1.6-0.7
					c-0.4-0.4-0.5-1-0.5-1.6c3.6-21.2,22.9-38.6,31-45.1c1.7-1.4,3.7-2.2,5.9-2.6l4.4-0.7l-0.2-0.9l-4.4,0.7
					c-2.3,0.3-4.5,1.3-6.3,2.8c-8.2,6.6-27.7,24.1-31.4,45.6c-0.1,0.8,0.1,1.7,0.7,2.4C923,240.2,923.8,240.5,924.7,240.5z"/>
				<path class="st39" d="M967.3,201.1c0,0-24.8,9.1-25.4,28.9c0,1.6,1.3,2.9,2.9,3l26,0.1C971.4,233.4,970,210.9,967.3,201.1z"/>
			</g>
			<g>
				<path class="st40" d="M266.7,298.9l30.3-0.6c0,0,1.3,3.2-1.2,6.6c-1.8,2.5-4.9,3.9-8.2,3.9l-19.2,0.2c-2.6-0.2-2.5-0.8-3.8-4.6
					l-1-4.1C263.6,298.5,264.9,298.9,266.7,298.9z"/>
				<path class="st38" d="M264.4,305.5c-0.1-0.3-0.2-0.6-0.4-1.1l-1-4.1l0-0.1c0-0.6,0.2-1.1,0.5-1.4c0.5-0.5,1.3-0.5,2.2-0.5
					c0.3,0,0.5,0,0.8,0l30.3-0.6l0.4,0l0.1,0.3c0.1,0.1,1.3,3.5-1.2,7.1c-1.9,2.6-5,4.1-8.6,4.1l-19.3,0.2
					C265.7,309.2,265.4,308.4,264.4,305.5z M266.7,299.4c-0.3,0-0.6,0-0.9,0c-0.7,0-1.3,0-1.5,0.2c-0.1,0.1-0.2,0.3-0.2,0.6l1,3.9
					c0.1,0.4,0.2,0.7,0.3,1c1,2.9,1,3.1,3,3.2l19.3-0.2c3.2,0,6.1-1.3,7.8-3.7c1.8-2.5,1.4-4.9,1.2-5.7L266.7,299.4z"/>
			</g>
			<g>
				<path class="st38" d="M815.5,182.4c0.6,3.7-361.6,21.3-361.6,21.3s0.1-10.6,1.6-11.4c31.7-16.4,109-58.9,139.8-61.4
					c39-3.1,119.6-8.8,145.2,1.2c26.4,10.3,51,22.9,69.3,35.2C815.8,171.3,814.6,176.2,815.5,182.4z"/>
				<g>
					<path class="st41" d="M489.3,180.9v12.5l23.1-1.2h0l47.5-2.4h0l86.6-4.4l0.4-2.5l3.3-20.9l3-18.6l1.9-12.2
						c-6.4,0.2-23.7,1.2-39.9,2.6c-10.6,0.9-19.5,1.1-25.6,2.4c-4.5,0.9-12.1,4-19.6,6.9c-8.8,3.5-19.1,8-29.3,12.7h0
						c-12.6,5.8-25,11.9-34.5,16.7h0C496,177.4,489.3,180.9,489.3,180.9z"/>
					<path class="st41" d="M664.5,185.4c1,0,8.4-0.4,19-1.1c5.2-0.3,11.2-0.7,17.7-1.1c0.2,0,0.4,0,0.6,0c7.4-0.4,15.3-0.9,23.2-1.4
						c0.7,0,1.4-0.1,2.1-0.1c1.6-0.1,3.2-0.2,4.8-0.3c4.5-0.3,9-0.6,13.3-0.8h0c5.7-0.4,11-0.7,15.9-1c1.5-0.1,3-0.2,4.4-0.3
						c4.2-0.3,7.8-0.5,10.8-0.7c2.5-0.2,4.4-0.3,5.7-0.4c1.3-0.1,2-0.1,2-0.1v-14.4c0,0-2.8-3.4-8.8-8.1l0,0
						c-9.6-5.7-31.3-19.5-43.2-21.3c-3.9-0.6-11.1-1.8-14.8-2.2c-3.3-0.4-6.9-0.4-10.4-0.7c-1.9-0.1-3.9-0.3-5.8-0.4
						c-4.1-0.2-8.4-0.4-12.7-0.5h0c-1.8,0-3.6,0-5.4-0.1c-5,0-10,0.1-14.9,0.2c0,0,0,0.2-0.1,0.6c0,0.3-0.1,0.8-0.2,1.4
						c-0.3,2.6-1,7.6-1.6,13.5c0,0.2,0,0.3-0.1,0.5c-0.3,2.4-0.6,5-0.8,7.6v0c-0.4,3.7-0.7,7.4-1,11
						C663.1,176.1,662.9,185.4,664.5,185.4z"/>
					<g>
						<path class="st34" d="M665.9,146.6l118,29.9v-12.7c0,0-2.8-3.4-8.8-8.1l0,0l-107.3-24.3c0,0.3-0.1,0.8-0.2,1.4
							c-0.3,2.6-1,7.6-1.6,13.5C665.9,146.3,665.9,146.4,665.9,146.6z"/>
						<path class="st34" d="M615.2,133.7l37.9,9.6l1.9-12.2C648.7,131.4,631.4,132.3,615.2,133.7z"/>
						<path class="st34" d="M664,165.3c-0.9,10.9-1.1,20.1,0.5,20.1c1,0,8.4-0.4,19-1.1c5.2-0.3,11.2-0.7,17.7-1.1
							c0.2,0,0.4,0,0.6,0c7.4-0.4,15.3-0.9,23.2-1.4c0.7,0,1.4-0.1,2.1-0.1c1.6-0.1,3.2-0.2,4.8-0.3L664,165.3z"/>
						<path class="st34" d="M540.7,155.7l106.1,27.2l3.3-20.9L570,143C561.2,146.4,550.9,150.9,540.7,155.7z"/>
						<path class="st34" d="M489.3,180.9v1.9l23.1,9.4h0l47.5-2.4l-53.7-17.5h0C496,177.4,489.3,180.9,489.3,180.9z"/>
					</g>
				</g>
			</g>
			<g>
				<path class="st42" d="M478.8,196.3c3.7,9.4,23.6,10.7,25-1c1.6-13.8,2.4-18.7-5.7-18.7c-15.5,0-17.2,5.1-19.5,13.9
					C477.9,192.7,478.1,194.6,478.8,196.3z"/>
				<path class="st43" d="M478.8,196.3c26.2,3.5,19.3-19.7,19.3-19.7c-15.5,0-17.2,5.1-19.5,13.9
					C477.9,192.7,478.1,194.6,478.8,196.3z"/>
			</g>
			<g>
				<path class="st40" d="M265.2,251.9c0.2-0.3,0.3-0.6,0.5-0.9c7.8-14.1,21.4-24.3,37.4-28l20.3-4.6c0.6-0.1,1.1,0.1,1.4,0.6
					c0.2,0.3,0.3,0.8,0.1,1.2c-10.7,21.5-12.8,24.3-17.6,27c-7.7,4.3-34.4,9.1-42.7,10.5c-1,0.2-1.8-0.9-1.3-1.8L265.2,251.9z"/>
				<path class="st44" d="M264.5,257.7c8.3-1.4,35-6.2,42.7-10.5c4.8-2.7,6.9-5.5,17.6-27c0.2-0.4,0.2-0.9-0.1-1.2
					c-8.4,8.3-30.4,27.5-59,32c-0.2,0.3-0.3,0.6-0.5,0.9l-2.1,3.9C262.6,256.8,263.4,257.8,264.5,257.7z"/>
				<path class="st38" d="M262.8,257.5c-0.4-0.5-0.4-1.2-0.1-1.8l2.1-3.9c7.7-14.8,21.7-25.4,38.2-29.2l20.3-4.6
					c0.7-0.2,1.4,0.1,1.8,0.6c0.4,0.5,0.5,1.2,0.2,1.9c-10.8,21.8-12.9,24.4-17.8,27.2c-7.8,4.4-34.8,9.2-42.9,10.6
					c-0.1,0-0.2,0-0.3,0C263.7,258.2,263.1,257.9,262.8,257.5z M323.4,218.9l-20.3,4.6c-16.3,3.7-30,14.1-37.6,28.6l-2.1,3.9
					c-0.1,0.2-0.1,0.5,0.1,0.8c0.2,0.2,0.5,0.4,0.8,0.3c8-1.4,34.8-6.1,42.5-10.5c4.7-2.6,6.7-5.2,17.4-26.8
					c0.1-0.3,0.1-0.5-0.1-0.8c-0.2-0.2-0.4-0.3-0.6-0.3C323.6,218.9,323.5,218.9,323.4,218.9z"/>
			</g>
			<g>
				<g>
					<path class="st45" d="M783.9,314.5c0,2.7,0.2,5.4,0.4,8.1h95.9l35.3-7.2c0-0.3,0-0.6,0-0.9c0-38.7-29.5-70.2-65.8-70.2
						C813.4,244.4,783.9,275.8,783.9,314.5z"/>
					
						<linearGradient id="SVGID_5_" gradientUnits="userSpaceOnUse" x1="522.6426" y1="370.1331" x2="522.6426" y2="250.7633" gradientTransform="matrix(-1 0 0 1 1372.351 0)">
						<stop  offset="0" style="stop-color:#272C2E"/>
						<stop  offset="0.9888" style="stop-color:#505D61"/>
					</linearGradient>
					<circle class="st46" cx="849.7" cy="310.4" r="59.7"/>
					
						<ellipse transform="matrix(0.9806 -0.1961 0.1961 0.9806 -44.3831 172.6701)" class="st47" cx="849.7" cy="310.4" rx="57.1" ry="57.1"/>
				</g>
				<g>
					
						<ellipse transform="matrix(0.6464 -0.763 0.763 0.6464 63.6001 758.1268)" class="st48" cx="849.7" cy="310.4" rx="47.2" ry="47.2"/>
					
						<ellipse transform="matrix(0.9732 -0.2298 0.2298 0.9732 -48.5958 203.5276)" class="st49" cx="849.7" cy="310.4" rx="44.9" ry="44.9"/>
					<g>
						<polygon class="st50" points="844.3,271 857.5,271 850.2,295 						"/>
						<polygon class="st50" points="873.8,278.8 883.1,288.1 861,299.8 						"/>
						<polygon class="st50" points="889.1,305.1 889.1,318.3 865.2,310.9 						"/>
						<polygon class="st50" points="881.4,334.5 872.1,343.9 860.3,321.7 						"/>
						<polygon class="st50" points="855.1,349.9 841.9,349.9 849.3,325.9 						"/>
						<polygon class="st50" points="825.6,342.1 816.3,332.8 838.5,321.1 						"/>
						<polygon class="st50" points="810.3,315.8 810.3,302.6 834.3,310 						"/>
						<polygon class="st50" points="818,286.4 827.3,277 839.1,299.2 						"/>
					</g>
					<path class="st51" d="M838.8,310.4c0-6,4.9-10.9,10.9-10.9s10.9,4.9,10.9,10.9c0,6-4.9,10.9-10.9,10.9S838.8,316.5,838.8,310.4
						z M841.1,310.4c0,4.8,3.9,8.6,8.6,8.6s8.6-3.9,8.6-8.6c0-4.8-3.9-8.6-8.6-8.6S841.1,305.7,841.1,310.4z"/>
					<g>
						<path class="st50" d="M848.4,306.1c0,0.7,0.6,1.3,1.3,1.3c0.7,0,1.3-0.6,1.3-1.3s-0.6-1.3-1.3-1.3
							C849,304.8,848.4,305.4,848.4,306.1z"/>
						<circle class="st50" cx="854" cy="310.4" r="1.3"/>
						<circle class="st50" cx="849.7" cy="314.8" r="1.3"/>
						<path class="st50" d="M845.4,311.7c0.7,0,1.3-0.6,1.3-1.3c0-0.7-0.6-1.3-1.3-1.3c-0.7,0-1.3,0.6-1.3,1.3
							C844.1,311.2,844.7,311.7,845.4,311.7z"/>
					</g>
				</g>
			</g>
			<g>
				<path class="st45" d="M309.1,322.6h7.5c1,4.7,2.5,9.1,4.5,13.3l2.9,0.2h0l32.8,2.1l12.6,0.8h0l8.8,0.6l11.3,0.7c0,0,0,0,0,0
					l32.8,2.1h0l2.9,0.2c3.9-6,6.7-12.8,8.2-20h7.4v-7.2c0-0.3,0-0.6,0-0.9c0-38.7-29.5-70.2-65.8-70.2c-36.3,0-65.8,31.5-65.8,70.2
					C309.2,315.7,309.2,319,309.1,322.6z"/>
				
					<linearGradient id="SVGID_6_" gradientUnits="userSpaceOnUse" x1="997.3046" y1="370.1356" x2="997.3046" y2="250.7659" gradientTransform="matrix(-1 0 0 1 1372.351 0)">
					<stop  offset="0" style="stop-color:#272C2E"/>
					<stop  offset="0.9888" style="stop-color:#505D61"/>
				</linearGradient>
				<path class="st52" d="M315.4,310.5c0,4.2,0.4,8.3,1.2,12.2c1,4.7,2.5,9.1,4.5,13.3c9.6,20.2,30.1,34.2,54,34.2
					c21.1,0,39.6-10.9,50.2-27.5c3.9-6,6.7-12.8,8.2-20c0.8-3.9,1.2-8,1.2-12.2c0-33-26.7-59.7-59.7-59.7
					C342.1,250.8,315.4,277.5,315.4,310.5z"/>
				
					<ellipse transform="matrix(0.978 -0.2088 0.2088 0.978 -56.553 85.148)" class="st47" cx="375" cy="310.4" rx="57.1" ry="57.1"/>
				<g>
					
						<ellipse transform="matrix(0.523 -0.8524 0.8524 0.523 -85.7036 467.7628)" class="st48" cx="375" cy="310.4" rx="47.2" ry="47.2"/>
					
						<ellipse transform="matrix(0.9743 -0.2253 0.2253 0.9743 -60.3035 92.4832)" class="st49" cx="375" cy="310.4" rx="44.9" ry="44.9"/>
					<g>
						<polygon class="st50" points="369.7,271 382.9,271 375.5,295 						"/>
						<polygon class="st50" points="399.1,278.8 408.5,288.1 386.3,299.8 						"/>
						<polygon class="st50" points="414.5,305.1 414.5,318.3 390.5,310.9 						"/>
						<polygon class="st50" points="406.7,334.5 397.4,343.9 385.7,321.7 						"/>
						<polygon class="st50" points="380.4,349.9 367.2,349.9 374.6,325.9 						"/>
						<polygon class="st50" points="351,342.1 341.6,332.8 363.8,321.1 						"/>
						<polygon class="st50" points="335.6,315.8 335.6,302.6 359.6,310 						"/>
						<polygon class="st50" points="343.4,286.4 352.7,277 364.4,299.2 						"/>
					</g>
					<path class="st51" d="M364.1,310.4c0-6,4.9-10.9,10.9-10.9c6,0,10.9,4.9,10.9,10.9c0,6-4.9,10.9-10.9,10.9
						C369,321.4,364.1,316.5,364.1,310.4z M366.4,310.4c0,4.8,3.9,8.6,8.6,8.6c4.8,0,8.6-3.9,8.6-8.6c0-4.8-3.9-8.6-8.6-8.6
						C370.3,301.8,366.4,305.7,366.4,310.4z"/>
					<g>
						<circle class="st50" cx="375" cy="306.1" r="1.3"/>
						<circle class="st50" cx="379.4" cy="310.4" r="1.3"/>
						<path class="st50" d="M376.3,314.8c0-0.7-0.6-1.3-1.3-1.3c-0.7,0-1.3,0.6-1.3,1.3c0,0.7,0.6,1.3,1.3,1.3
							C375.8,316.1,376.3,315.5,376.3,314.8z"/>
						<path class="st50" d="M370.7,311.7c0.7,0,1.3-0.6,1.3-1.3c0-0.7-0.6-1.3-1.3-1.3c-0.7,0-1.3,0.6-1.3,1.3
							C369.4,311.2,370,311.7,370.7,311.7z"/>
					</g>
				</g>
			</g>
			<g>
				<path class="st53" d="M649.3,312.9l1.7,0c-0.1-4.6-0.2-9.2-0.3-13.9c-0.9-41.4-1.7-84.4,4-105.6l-1.7,0.1
					c-5.8,21.4-4.8,64.1-4,105.6C649.1,303.7,649.2,308.3,649.3,312.9z"/>
			</g>
			<path class="st54" d="M942.5,296.2l38.1-5.7c-1.4-1.8-2.4-4-2.6-6.3L942.5,296.2z"/>
		</g>
	</g>
</g>
</svg>
